<svg xmlns="http://www.w3.org/2000/svg" viewBox="0 0 640 360"><rect width="640" height="360" fill="#f7e9ff"/><path d="M0 250c80-40 140-20 200-40s140-10 200 20 140 10 240-20v150H0z" fill="#fff"/><path d="M40 220c40-30 80-10 120-24 40-14 80 6 120-8 40-14 70 4 120-6 40-8 70 8 120 0 40-8 60 6 80 0v30H40z" fill="#ffe8f6"/><rect x="230" y="90" width="180" height="150" rx="8" fill="#f7b6de"/><polygon points="230,90 320,30 410,90" fill="#e2569a"/><rect x="300" y="150" width="40" height="90" fill="#f6c453"/><text x="312" y="200" font-size="28" fill="#fff">𝄞</text><circle cx="120" cy="80" r="18" fill="#c9a0ff"/><circle cx="500" cy="70" r="16" fill="#7ec8ff"/><path d="M40 200c40 10 80-20 120 0" stroke="#ff8ec4" fill="none" stroke-width="8"/></svg>